<svg width="415" height="424" viewBox="0 0 415 424" fill="none" xmlns="http://www.w3.org/2000/svg">
<g filter="url(#filter0_d)">
<path fill-rule="evenodd" clip-rule="evenodd" d="M178.918 194.181C176.716 215.08 157.051 242.863 131.386 225.181C113.454 212.827 106.787 189.027 109.39 159.07L178.918 194.181ZM195.973 104.663L201.21 106.156L200.973 122.337L200.804 131.495C192.121 132.388 184.374 134.197 176.635 137.112C168.183 140.295 161.036 145.442 157.244 146.865C153.873 144.78 153.086 144.207 151.388 140.661L142.485 131.817L142.965 124.077C140.386 114.764 129.987 107.436 120.451 115.381C117.291 118.015 114.366 123.003 115.691 129.494C116.856 135.199 120.169 137.69 124.887 139.69L135.38 139.694L142.848 148.311C145.962 150.255 146.844 150.979 148.456 154.308C144.644 157.166 140.061 162.065 136.44 166.071L129.528 162.305L113.889 154.123L103.304 149.372L101.48 176.433C102.353 182.613 103.063 188.821 104.592 194.463C106.183 200.334 108.899 204.775 110.303 209.866L96.6907 207.131L93.8823 199.343C88.9799 194.666 83.1851 185.153 67.8187 188.741C59.5387 190.675 51.4153 199.482 50.2483 208.782C48.5853 222.041 55.5416 229.697 63.1615 233.559C76.0032 240.07 84.7768 233.439 91.6006 228.032L92.6118 225.019L109.021 227.752L116.747 228.773C117.446 244.246 120.414 250.824 124.388 263.615L118.257 266.963L107.19 274.606L100.445 271.68C85.9342 271.188 76.3264 283.244 83.7435 297.299C86.2113 301.974 92.3613 305.817 100.429 304.699C107.308 303.746 110.547 299.247 113.233 293.975L113.964 284.765L124.537 277.888L129.79 274.404L131.293 276.904C135.393 275.992 168.995 257.346 175.228 253.9L219.224 229.846C212.282 224.559 210.82 225.706 203.033 215.89C198.885 210.662 194.2 203.095 193.312 193.197L271.936 157.397C272.931 183.934 272.603 183.002 265.303 205.291C274.094 199.742 281.016 197.279 286.877 193.871C289.382 192.414 291.406 191.055 293.968 189.657C291.419 183.675 287.8 178.584 285.701 173.082C287.28 169.898 289.118 167.863 292.322 166.258C294.026 164.009 299.231 166.071 302.341 165.929C306.113 165.757 308.806 164.204 311.923 163.381C315.076 159.891 318.615 157.277 319.907 150.694C321.252 143.834 318.996 137.903 315.731 133.877C307.331 123.518 296.442 126.441 286.939 132.813C285.423 135.973 283.241 138.122 282.468 142.934C281.816 146.999 283.708 153.956 282.744 154.641L276.742 161.275C276.343 160.455 276.051 159.725 274.984 158.849C271.794 156.231 274.97 158.312 271.936 157.397C268.768 149.026 241.171 136.594 233.265 134.402L220.585 131.77C216.993 130.529 217.74 130.371 218.086 122.39L217.843 106.648L222.299 104.657C230.348 98.7611 240.218 87.7496 236.473 72.0359C233.692 60.3703 223.162 50.3353 209.674 50.0097C179.52 49.282 170.483 89.8677 195.971 104.665L195.973 104.663Z" fill="#00D1B2"/>
<path fill-rule="evenodd" clip-rule="evenodd" d="M284.933 291.046C281.294 295.998 278.257 298.726 273.237 302.843C267.212 309.543 250.779 318.498 238.735 322.172C222.509 327.121 208.065 327.604 190.906 324.845L176.783 320.771C170.11 318.843 162.118 314.643 157.195 311.465C154.188 309.524 151.419 307.449 148.782 305.563C146.691 304.069 146.485 303.585 144.672 301.981L140.963 298.027L147.394 294.54L300.087 212.008C302.704 210.018 305.227 208.123 308.436 208.092L309.352 217.762L309.321 231.979C308.54 243.602 305.464 256.135 301.172 265.477C297.805 272.807 289.588 288.005 284.932 291.046L284.933 291.046ZM292.323 166.256C295.59 172.257 299.757 178.254 301.771 185.595L293.969 189.655C291.407 191.053 289.383 192.412 286.878 193.869C281.017 197.278 274.095 199.74 265.305 205.289C260.281 211.984 258.387 217.592 247.68 224.283C236.98 230.969 233.294 232.397 219.225 229.844L175.229 253.898C168.996 257.344 135.394 275.99 131.294 276.902L125.609 280.351L124.538 277.886L113.965 284.764L113.235 293.974C121.62 306.429 126.199 310.264 136.616 319.113C146.267 327.311 154.439 330.096 165.976 336.855C177.817 340.006 184.517 342.539 197.71 344.467C214.844 345.58 227.416 344.696 243.1 339.983C251.231 337.541 262.437 332.651 269.733 328.178C272.412 326.537 274.503 324.755 277.418 323.432C281.968 319.808 288.211 314.577 292.064 310.842C296.779 306.271 300.107 301.275 304.705 295.848C316.472 279.184 324.715 258.859 327.466 232.866L327.564 216.722C326.46 205.993 325.247 197.334 322.101 187.581C320.589 182.893 319.351 179.242 317.24 174.718C315.418 170.813 313.172 167.449 311.924 163.379C308.807 164.202 306.115 165.755 302.342 165.927C299.232 166.068 294.027 164.007 292.323 166.256V166.256Z" fill="#FE3860"/>
<path fill-rule="evenodd" clip-rule="evenodd" d="M147.395 294.54C151.824 300.566 167.848 310.886 177.728 313.109L176.783 320.771L190.906 324.845L191.8 317.689C208.669 319.595 220.256 319.774 235.972 314.893C242.523 312.858 247.683 310.323 253.547 307.187C259.451 304.03 265.62 298.465 268.598 296.92C271.549 298.917 271.968 298.874 273.237 302.844C278.257 298.726 281.294 295.998 284.932 291.046C281.348 290.224 280.557 288.618 278.746 285.844C291.465 268.638 298.059 256.126 300.372 232.307L309.321 231.978L309.352 217.762L300.433 217.465L300.087 212.008L147.394 294.54L147.395 294.54Z" fill="#00D1B2"/>
<path fill-rule="evenodd" clip-rule="evenodd" d="M233.665 207.579C226.613 205.606 227.276 191.436 233.665 188.95C238.784 193.699 238.899 203.836 233.665 207.579ZM219.225 229.844C233.295 232.397 236.981 230.969 247.681 224.283C258.387 217.593 260.282 211.984 265.305 205.289C272.605 183.001 272.933 183.932 271.937 157.395L193.313 193.196C194.202 203.093 198.887 210.661 203.034 215.888C210.822 225.704 212.283 224.557 219.225 229.844V229.844Z" fill="#FEFEFE"/>
<path fill-rule="evenodd" clip-rule="evenodd" d="M157.488 191.531C159.873 193.352 158.67 191.05 160.022 194.755C161.259 198.144 162.58 207.829 156.153 209.959C150.268 206.455 151.464 191.842 157.488 191.531ZM178.918 194.181L109.39 159.07C106.787 189.027 113.455 212.827 131.386 225.181C157.051 242.863 176.716 215.08 178.918 194.181V194.181Z" fill="#FEFEFE"/>
<path fill-rule="evenodd" clip-rule="evenodd" d="M218.087 122.387C231.774 123.558 245.553 127.796 255.969 133.575C265.681 138.963 278.397 148.242 282.745 154.64C283.709 153.954 281.817 146.997 282.47 142.932C283.243 138.119 285.425 135.972 286.94 132.811C284.399 131.264 283.701 130.362 281.023 128.034C278.237 125.612 277.116 125.092 273.924 123.023C261.532 114.994 237.251 103.575 222.301 104.655L217.845 106.646L218.088 122.387H218.087Z" fill="#FE3860"/>
<path fill-rule="evenodd" clip-rule="evenodd" d="M327.565 216.722L327.466 232.867C327.672 233.098 327.947 233.399 328.086 233.559L331.77 237.937C332.773 238.985 334.847 240.874 336.613 241.927C340.245 244.094 345.289 245.055 350.037 243.965C370.838 239.192 368.99 208.73 349.393 205.288C335.999 202.936 332.123 210.698 327.565 216.722L327.565 216.722Z" fill="#00D1B2"/>
<path fill-rule="evenodd" clip-rule="evenodd" d="M197.71 344.467C184.517 342.539 177.817 340.007 165.976 336.855C162.381 342.18 157.228 347.228 159.684 358.026C165.072 381.71 205.337 378.212 197.71 344.467V344.467Z" fill="#00D1B2"/>
<path fill-rule="evenodd" clip-rule="evenodd" d="M142.966 124.076L142.485 131.817L151.388 140.66C166.339 131.464 178.822 124.212 200.973 122.336L201.21 106.155L195.973 104.662C187.399 104.44 174.247 108.682 166.976 111.628C162.617 113.395 158.718 114.999 154.846 117.119C150.461 119.518 147.18 122.305 142.966 124.076V124.076Z" fill="#FE3860"/>
<path fill-rule="evenodd" clip-rule="evenodd" d="M91.6019 228.031C91.0564 245.641 96.6426 257.146 100.447 271.679L107.191 274.605L118.259 266.962C116.407 260.539 113.943 255.498 112.176 248.209C110.387 240.818 110.391 234.783 109.022 227.751L92.6131 225.018L91.6019 228.031V228.031Z" fill="#FE3860"/>
<path fill-rule="evenodd" clip-rule="evenodd" d="M190.906 324.845C208.065 327.603 222.509 327.12 238.735 322.171C250.78 318.498 267.212 309.543 273.238 302.843C271.969 298.873 271.55 298.916 268.599 296.919C265.62 298.464 259.452 304.029 253.547 307.186C247.684 310.322 242.524 312.857 235.973 314.892C220.256 319.774 208.67 319.595 191.8 317.689L190.907 324.844L190.906 324.845Z" fill="black"/>
<path fill-rule="evenodd" clip-rule="evenodd" d="M271.937 157.395C274.971 158.31 271.796 156.229 274.986 158.847C276.052 159.722 276.344 160.453 276.743 161.273L282.745 154.639C278.396 148.241 265.681 138.962 255.968 133.574C245.552 127.795 231.774 123.558 218.087 122.387C217.741 130.368 216.993 130.527 220.585 131.768L233.266 134.399C241.172 136.591 268.769 149.024 271.937 157.395L271.937 157.395Z" fill="black"/>
<path fill-rule="evenodd" clip-rule="evenodd" d="M284.933 291.046C289.589 288.005 297.806 272.807 301.173 265.476C305.465 256.134 308.54 243.602 309.321 231.978L300.373 232.307C298.059 256.126 291.465 268.637 278.746 285.844C280.558 288.618 281.349 290.224 284.933 291.046V291.046Z" fill="black"/>
<path fill-rule="evenodd" clip-rule="evenodd" d="M277.418 323.433C281.312 325.272 284.927 328.867 291.546 328.708C297.612 328.562 301.779 325.483 304.65 322.587C312.617 314.552 311.456 303.796 304.706 295.848C300.107 301.275 296.78 306.271 292.065 310.842C288.212 314.578 281.969 319.809 277.418 323.432V323.433Z" fill="#00D1B2"/>
<path fill-rule="evenodd" clip-rule="evenodd" d="M151.388 140.661C153.086 144.207 153.873 144.779 157.244 146.865C161.037 145.442 168.183 140.295 176.635 137.112C184.374 134.197 192.121 132.389 200.804 131.495L200.973 122.336C178.822 124.213 166.339 131.465 151.388 140.661V140.661Z" fill="black"/>
<path fill-rule="evenodd" clip-rule="evenodd" d="M113.89 154.122L129.529 162.305L132.556 159.062C135.41 155.015 138.525 150.591 142.849 148.31L135.38 139.694L124.887 139.69C122.687 143.645 121.829 142.938 119.128 146.376C117.589 148.335 114.772 151.946 113.89 154.122V154.122Z" fill="#FE3860"/>
<path fill-rule="evenodd" clip-rule="evenodd" d="M176.783 320.77L177.728 313.108C167.848 310.886 151.824 300.566 147.394 294.539L140.964 298.026L144.673 301.98C146.485 303.585 146.691 304.068 148.782 305.562C151.419 307.448 154.189 309.523 157.196 311.464C162.118 314.641 170.11 318.842 176.784 320.77L176.783 320.77Z" fill="black"/>
<path fill-rule="evenodd" clip-rule="evenodd" d="M118.259 266.962L124.389 263.614C120.416 250.823 117.447 244.245 116.748 228.772L109.023 227.751C110.391 234.782 110.387 240.818 112.177 248.208C113.943 255.497 116.407 260.538 118.259 266.962L118.259 266.962Z" fill="black"/>
<path fill-rule="evenodd" clip-rule="evenodd" d="M93.8836 199.342L96.692 207.13L110.304 209.865C108.9 204.773 106.184 200.333 104.593 194.461C103.065 188.82 102.355 182.612 101.481 176.432C97.7087 182.223 95.2691 191.623 93.884 199.342H93.8836Z" fill="#FE3860"/>
<path fill-rule="evenodd" clip-rule="evenodd" d="M293.97 189.655L301.771 185.595C299.757 178.253 295.591 172.257 292.323 166.256C289.12 167.861 287.282 169.896 285.702 173.08C287.802 178.582 291.421 183.673 293.97 189.655V189.655Z" fill="black"/>
<path fill-rule="evenodd" clip-rule="evenodd" d="M129.529 162.305L136.441 166.071C140.062 162.065 144.645 157.166 148.456 154.308C146.845 150.979 145.963 150.255 142.849 148.31C138.526 150.591 135.41 155.015 132.556 159.062L129.53 162.305H129.529Z" fill="black"/>
<path fill-rule="evenodd" clip-rule="evenodd" d="M157.488 191.531C151.463 191.842 150.268 206.456 156.153 209.959C162.58 207.83 161.259 198.144 160.022 194.755C158.67 191.05 159.873 193.352 157.488 191.531Z" fill="#39461C"/>
<path fill-rule="evenodd" clip-rule="evenodd" d="M233.664 207.579C238.899 203.836 238.784 193.699 233.664 188.95C227.276 191.436 226.613 205.606 233.664 207.579Z" fill="#39461C"/>
<path fill-rule="evenodd" clip-rule="evenodd" d="M300.088 212.007L300.434 217.464L309.353 217.761L308.437 208.091C305.228 208.122 302.705 210.017 300.088 212.007H300.088Z" fill="black"/>
<path fill-rule="evenodd" clip-rule="evenodd" d="M124.539 277.887L125.61 280.351L131.294 276.902L129.792 274.402L124.539 277.887Z" fill="black"/>
</g>
<defs>
<filter id="filter0_d" x="-4" y="0" width="422.878" height="431.258" filterUnits="userSpaceOnUse" color-interpolation-filters="sRGB">
<feFlood flood-opacity="0" result="BackgroundImageFix"/>
<feColorMatrix in="SourceAlpha" type="matrix" values="0 0 0 0 0 0 0 0 0 0 0 0 0 0 0 0 0 0 127 0"/>
<feOffset dy="4"/>
<feGaussianBlur stdDeviation="2"/>
<feColorMatrix type="matrix" values="0 0 0 0 0 0 0 0 0 0 0 0 0 0 0 0 0 0 0.25 0"/>
<feBlend mode="normal" in2="BackgroundImageFix" result="effect1_dropShadow"/>
<feBlend mode="normal" in="SourceGraphic" in2="effect1_dropShadow" result="shape"/>
</filter>
</defs>
</svg>
