<?xml version="1.0" ?><svg height="100px" version="1.1" viewBox="0 0 64 64" width="100px" xmlns="http://www.w3.org/2000/svg" xmlns:xlink="http://www.w3.org/1999/xlink"><title/><desc/><g fill="none" fill-rule="evenodd" id="virus" stroke="none" stroke-width="1"><circle cx="32" cy="32" fill="#F7F1E3" id="Oval" r="30"/><g id="Group-23" transform="translate(4.000000, 4.000000)"><path d="M23.6904,37.2178 C23.3024,36.5168 23.2104,35.7058 23.4304,34.9358 C23.5834,34.4048 24.1374,34.0978 24.6684,34.2508 C24.9334,34.3268 25.1424,34.5038 25.2664,34.7268 C25.3904,34.9508 25.4294,35.2228 25.3534,35.4888 C25.2794,35.7438 25.3104,36.0148 25.4404,36.2478 C25.5694,36.4818 25.7824,36.6508 26.0394,36.7248 C26.2964,36.7988 26.5664,36.7668 26.7994,36.6378 C27.0324,36.5078 27.2024,36.2958 27.2754,36.0388 C27.3624,35.7378 27.3044,35.4188 27.1164,35.1658 C26.9854,34.9888 26.8034,34.8638 26.5894,34.8018 C26.3244,34.7258 26.1154,34.5488 25.9914,34.3248 C25.8664,34.1018 25.8284,33.8298 25.9044,33.5658 C26.0574,33.0328 26.6094,32.7288 27.1414,32.8798 C27.7814,33.0638 28.3284,33.4428 28.7234,33.9758 C29.2844,34.7318 29.4574,35.6858 29.1984,36.5898 C28.9774,37.3608 28.4694,37.9978 27.7694,38.3868 C27.3174,38.6368 26.8204,38.7648 26.3184,38.7648 C26.0414,38.7648 25.7614,38.7258 25.4874,38.6468 C24.7174,38.4258 24.0794,37.9178 23.6904,37.2178 M19.0004,23.9998 C19.0004,22.4318 19.7154,20.9848 20.9614,20.0288 C21.8404,19.3558 22.8914,18.9998 24.0004,18.9998 C24.5524,18.9998 25.0004,19.4468 25.0004,19.9998 C25.0004,20.2768 24.8884,20.5268 24.7074,20.7068 C24.5264,20.8888 24.2764,20.9998 24.0004,20.9998 C23.3344,20.9998 22.7044,21.2128 22.1784,21.6158 C21.4294,22.1898 21.0004,23.0588 21.0004,23.9998 C21.0004,25.6548 22.3454,26.9998 24.0004,26.9998 C25.6544,26.9998 27.0004,25.6548 27.0004,23.9998 C27.0004,23.7238 27.1114,23.4738 27.2934,23.2928 C27.4734,23.1118 27.7234,22.9998 28.0004,22.9998 C28.5524,22.9998 29.0004,23.4468 29.0004,23.9998 C29.0004,26.7568 26.7564,28.9998 24.0004,28.9998 C21.2434,28.9998 19.0004,26.7568 19.0004,23.9998 M37.4864,28.6608 C37.0654,28.1958 36.4634,27.9478 35.8394,28.0068 C35.3984,28.0408 34.9914,28.2168 34.6624,28.5138 C34.4574,28.6978 34.1954,28.7818 33.9404,28.7688 C33.6844,28.7558 33.4344,28.6448 33.2504,28.4408 C32.8794,28.0298 32.9134,27.3978 33.3234,27.0278 C33.9824,26.4328 34.7984,26.0818 35.6814,26.0128 C36.9344,25.9158 38.1324,26.3898 38.9724,27.3228 C39.6874,28.1168 40.0504,29.1428 39.9944,30.2088 C39.9384,31.2768 39.4704,32.2578 38.6764,32.9728 C37.9134,33.6588 36.9564,33.9978 36.0024,33.9978 C34.9074,33.9978 33.8164,33.5528 33.0274,32.6778 C32.6574,32.2668 32.6904,31.6348 33.1014,31.2648 C33.3064,31.0788 33.5664,30.9958 33.8224,31.0098 C34.0784,31.0228 34.3284,31.1338 34.5134,31.3378 C35.2514,32.1588 36.5184,32.2248 37.3384,31.4868 C37.7354,31.1288 37.9694,30.6388 37.9974,30.1048 C38.0254,29.5718 37.8434,29.0588 37.4864,28.6608 M32.5004,37.9998 C38.5674,35.4458 42.1804,31.5098 43.3534,26.2008 C43.0604,26.0658 42.8434,25.7968 42.7874,25.4678 C42.4194,23.3078 41.6014,21.2948 40.3534,19.4878 C40.1254,19.1568 40.1164,18.7248 40.3294,18.3858 C40.5994,17.9578 40.8534,17.5888 41.0914,17.2778 C41.4704,16.7818 41.9694,16.2248 42.5764,15.6158 C42.7244,15.2598 43.0734,15.0068 43.4824,14.9998 L43.5954,14.9978 C44.9294,14.9478 46.0004,13.8468 46.0004,12.4998 C46.0004,11.1208 44.8784,9.9998 43.5004,9.9998 C42.1394,9.9998 41.0194,11.1068 41.0024,12.4668 C41.0004,12.7278 40.8954,12.9758 40.7114,13.1598 C40.0874,13.7868 39.4184,14.3758 38.7224,14.9078 C38.3774,15.1718 38.0204,15.4278 37.6484,15.6718 C37.3074,15.8968 36.8634,15.8908 36.5284,15.6588 C34.7724,14.4428 32.8184,13.6308 30.7224,13.2458 C30.3294,13.1738 30.0164,12.8748 29.9274,12.4858 C29.8124,11.9808 29.7284,11.5298 29.6754,11.1318 C29.6204,10.7188 29.5884,10.2398 29.5694,9.7228 C29.0724,9.8888 28.5514,9.9998 28.0004,9.9998 C27.4504,9.9998 26.9314,9.8898 26.4364,9.7248 C26.4084,10.1968 26.3864,10.6698 26.3244,11.1318 C26.2664,11.5728 26.1904,12.0168 26.0984,12.4628 C26.0154,12.8618 25.6984,13.1698 25.2974,13.2428 C23.3884,13.5898 21.5874,14.2958 19.9454,15.3428 C19.6024,15.5648 19.1594,15.5508 18.8274,15.3138 C18.6404,15.1808 18.4574,15.0458 18.2774,14.9078 C17.5514,14.3538 16.8534,13.7358 16.2014,13.0718 C15.9714,12.8358 15.8714,12.5018 15.9344,12.1798 C15.9784,11.9568 16.0004,11.7288 16.0004,11.4998 C16.0004,9.5708 14.4294,7.9998 12.5004,7.9998 C10.5704,7.9998 9.0004,9.5708 9.0004,11.4998 C9.0004,13.4298 10.5704,14.9998 12.5004,14.9998 C12.7114,14.9998 12.9254,14.9808 13.1354,14.9428 C13.4534,14.8858 13.7764,14.9848 14.0074,15.2068 C14.8234,15.9948 15.4454,16.6718 15.9094,17.2788 C15.9934,17.3888 16.0794,17.5068 16.1684,17.6338 C16.4184,17.9918 16.4054,18.4728 16.1374,18.8188 C14.8244,20.5118 13.9064,22.4228 13.4114,24.4978 C13.3184,24.8868 13.0024,25.1838 12.6074,25.2508 C12.4414,25.2798 12.2834,25.3038 12.1324,25.3238 C11.4704,25.4118 10.6624,25.4488 9.7274,25.4458 C9.8904,25.9378 10.0004,26.4538 10.0004,26.9998 C10.0004,27.5338 9.8934,28.0388 9.7384,28.5218 C10.5464,28.5298 11.3484,28.5718 12.1324,28.6758 C12.1444,28.6778 12.2424,28.6918 12.2534,28.6938 C12.6964,28.7688 13.0344,29.1298 13.0814,29.5758 C13.3154,31.8208 14.0764,34.0098 15.2714,35.9268 C20.8704,39.7838 26.6124,40.4788 32.5004,37.9998" fill="#F8F5EF" id="Fill-1"/><path d="M43.8677,26.3242 L43.6117,26.2872 C43.5197,26.2712 43.4347,26.2402 43.3527,26.2012 C42.1807,31.5102 38.5677,35.4452 32.4997,38.0002 C26.6127,40.4782 20.8697,39.7842 15.2707,35.9272 C15.2957,35.9672 15.3137,36.0092 15.3387,36.0482 C15.5527,36.3842 15.5467,36.8152 15.3227,37.1452 C15.1807,37.3562 15.0417,37.5482 14.9087,37.7212 C14.2597,38.5712 13.2977,39.5632 11.9707,40.7562 C11.7667,40.9382 11.4977,41.0282 11.2247,41.0092 C9.5087,40.8832 7.9997,42.2702 7.9997,44.0002 C7.9997,45.6542 9.3457,47.0002 10.9997,47.0002 C12.6547,47.0002 13.9997,45.6542 13.9997,44.0002 C13.9997,43.9142 13.9957,43.8282 13.9877,43.7422 C13.9607,43.4702 14.0457,43.2002 14.2227,42.9932 C15.1557,41.9042 16.1837,40.9282 17.2787,40.0912 L17.6067,39.8472 C17.9677,39.5802 18.4617,39.5862 18.8157,39.8602 C20.7097,41.3292 22.9517,42.3312 25.3007,42.7572 C25.7027,42.8302 26.0207,43.1412 26.1017,43.5432 C26.1917,43.9862 26.2657,44.4282 26.3247,44.8682 C26.3867,45.3302 26.4087,45.8032 26.4367,46.2752 C26.9317,46.1102 27.4507,46.0002 27.9997,46.0002 C28.5517,46.0002 29.0727,46.1112 29.5697,46.2772 C29.5887,45.7602 29.6197,45.2812 29.6757,44.8682 C29.7277,44.4702 29.8117,44.0192 29.9287,43.5132 C30.0177,43.1242 30.3297,42.8262 30.7217,42.7542 C32.7487,42.3822 34.6447,41.6092 36.3567,40.4582 L36.7237,40.2042 C37.0847,39.9532 37.5657,39.9692 37.9117,40.2412 L38.1617,40.4382 C39.1027,41.2032 39.9787,42.0602 40.7767,42.9962 C40.9507,43.2002 41.0347,43.4662 41.0117,43.7332 C41.0037,43.8202 40.9997,43.9102 40.9997,44.0002 C40.9997,45.6542 42.3457,47.0002 43.9997,47.0002 C45.6547,47.0002 46.9997,45.6542 46.9997,44.0002 C46.9997,42.3452 45.6547,41.0002 43.9997,41.0002 L43.7637,41.0102 C43.4937,41.0252 43.2297,40.9362 43.0287,40.7562 C41.8197,39.6702 40.8837,38.7152 40.2447,37.9202 C39.9647,37.5702 39.9507,37.0772 40.2117,36.7122 C41.5397,34.8552 42.4067,32.7752 42.7867,30.5312 C42.8597,30.1002 43.2037,29.7662 43.6367,29.7082 L43.8637,29.6772 C44.6507,29.5722 45.4527,29.5302 46.2627,29.5212 C46.1067,29.0392 45.9997,28.5342 45.9997,28.0002 C45.9997,27.4542 46.1097,26.9372 46.2727,26.4452 C45.3367,26.4492 44.5297,26.4122 43.8677,26.3242" fill="#D8CBCB" id="Fill-3"/><path d="M25.3735,6.4189 C25.6275,6.8879 25.9965,7.2789 26.4515,7.5569 C26.9045,7.8319 27.4315,7.9999 27.9995,7.9999 C28.5815,7.9999 29.1215,7.8259 29.5825,7.5379 C30.0325,7.2559 30.3955,6.8569 30.6445,6.3859 C30.8535,5.9879 30.9825,5.5449 30.9935,5.0679 C30.9935,5.0449 30.9995,5.0229 30.9995,4.9999 C30.9995,3.3459 29.6545,1.9999 27.9995,1.9999 C26.3455,1.9999 24.9995,3.3459 24.9995,4.9999 C24.9995,5.0239 25.0065,5.0459 25.0065,5.0699 C25.0185,5.5599 25.1535,6.0149 25.3735,6.4189" fill="#F8F5EF" id="Fill-5"/><path d="M29,24 C29,23.447 28.552,23 28,23 C27.724,23 27.474,23.111 27.293,23.293 C27.112,23.474 27,23.724 27,24 C27,25.654 25.654,27 24,27 C22.346,27 21,25.654 21,24 C21,23.059 21.43,22.189 22.178,21.616 C22.705,21.213 23.334,21 24,21 C24.276,21 24.526,20.889 24.707,20.707 C24.888,20.526 25,20.276 25,20 C25,19.447 24.552,19 24,19 C22.891,19 21.841,19.355 20.962,20.028 C19.715,20.984 19,22.432 19,24 C19,26.757 21.243,29 24,29 C26.757,29 29,26.757 29,24" fill="#866D6D" id="Fill-7"/><path d="M34.5132,31.3379 C34.3282,31.1339 34.0782,31.0229 33.8232,31.0099 C33.5672,30.9959 33.3062,31.0789 33.1012,31.2649 C32.6912,31.6349 32.6582,32.2669 33.0282,32.6779 C33.8162,33.5529 34.9072,33.9979 36.0022,33.9979 C36.9562,33.9979 37.9132,33.6589 38.6762,32.9729 C39.4712,32.2579 39.9382,31.2759 39.9942,30.2089 C40.0502,29.1429 39.6872,28.1169 38.9722,27.3229 C38.1322,26.3899 36.9342,25.9159 35.6812,26.0129 C34.7982,26.0819 33.9832,26.4329 33.3232,27.0269 C32.9132,27.3979 32.8802,28.0289 33.2502,28.4409 C33.4342,28.6449 33.6842,28.7559 33.9402,28.7689 C34.1962,28.7819 34.4572,28.6979 34.6622,28.5139 C34.9922,28.2169 35.3982,28.0409 35.8392,28.0069 C36.4632,27.9479 37.0652,28.1949 37.4862,28.6609 C37.8442,29.0589 38.0252,29.5709 37.9972,30.1049 C37.9692,30.6389 37.7352,31.1289 37.3382,31.4859 C36.5182,32.2249 35.2512,32.1589 34.5132,31.3379" fill="#866D6D" id="Fill-9"/><path d="M27.769,38.3867 C28.47,37.9977 28.977,37.3607 29.198,36.5897 C29.457,35.6857 29.285,34.7317 28.724,33.9757 C28.329,33.4427 27.782,33.0637 27.142,32.8797 C26.609,32.7287 26.057,33.0327 25.904,33.5657 C25.828,33.8297 25.867,34.1017 25.991,34.3247 C26.115,34.5487 26.325,34.7257 26.59,34.8017 C26.804,34.8637 26.986,34.9897 27.117,35.1657 C27.304,35.4187 27.362,35.7377 27.275,36.0387 C27.202,36.2957 27.033,36.5077 26.799,36.6377 C26.567,36.7667 26.297,36.7987 26.039,36.7247 C25.782,36.6507 25.569,36.4817 25.44,36.2477 C25.311,36.0147 25.28,35.7437 25.353,35.4887 C25.43,35.2227 25.391,34.9507 25.267,34.7267 C25.143,34.5037 24.933,34.3267 24.668,34.2507 C24.137,34.0977 23.583,34.4057 23.431,34.9357 C23.21,35.7057 23.302,36.5167 23.69,37.2177 C24.079,37.9177 24.717,38.4257 25.487,38.6467 C25.762,38.7257 26.041,38.7647 26.319,38.7647 C26.821,38.7647 27.317,38.6367 27.769,38.3867" fill="#866D6D" id="Fill-11"/><path d="M51,25 C50.637,25 50.293,25.074 49.971,25.193 C49.608,25.326 49.282,25.526 49,25.78 L49,30.22 C49.281,30.474 49.608,30.673 49.97,30.807 C50.292,30.925 50.637,31 51,31 C52.654,31 54,29.654 54,28 C54,26.346 52.654,25 51,25" fill="#D8CBCB" id="Fill-13"/><path d="M48,28 C48,28.883 48.391,29.67 49,30.22 L49,25.78 C48.391,26.33 48,27.117 48,28" fill="#D5CCC7" id="Fill-15"/><path d="M51,31 C50.637,31 50.292,30.925 49.97,30.807 C49.608,30.673 49.281,30.474 49,30.22 C48.391,29.67 48,28.883 48,28 C48,27.117 48.391,26.33 49,25.78 C49.282,25.526 49.608,25.326 49.971,25.193 C50.293,25.074 50.637,25 51,25 C52.654,25 54,26.346 54,28 C54,29.654 52.654,31 51,31 M46.262,29.521 C45.453,29.53 44.65,29.572 43.864,29.677 L43.636,29.708 C43.204,29.767 42.859,30.101 42.787,30.531 C42.406,32.775 41.54,34.855 40.212,36.712 C39.951,37.077 39.965,37.57 40.245,37.92 C40.883,38.715 41.82,39.67 43.029,40.756 C43.229,40.937 43.494,41.025 43.764,41.01 L44,41 C45.654,41 47,42.346 47,44 C47,45.654 45.654,47 44,47 C42.346,47 41,45.654 41,44 C41,43.91 41.004,43.82 41.012,43.733 C41.035,43.466 40.951,43.2 40.776,42.996 C39.979,42.061 39.103,41.203 38.162,40.438 L37.912,40.241 C37.565,39.969 37.084,39.953 36.724,40.204 L36.357,40.458 C34.645,41.609 32.749,42.382 30.722,42.754 C30.33,42.826 30.018,43.124 29.928,43.514 C29.812,44.02 29.728,44.471 29.675,44.868 C29.62,45.281 29.588,45.76 29.569,46.277 C29.073,46.111 28.552,46 28,46 C27.451,46 26.932,46.11 26.437,46.275 C26.409,45.804 26.386,45.33 26.325,44.868 C26.266,44.429 26.191,43.986 26.102,43.543 C26.021,43.142 25.703,42.83 25.3,42.757 C22.952,42.331 20.709,41.329 18.815,39.86 C18.461,39.586 17.967,39.58 17.606,39.848 L17.279,40.091 C16.184,40.928 15.156,41.904 14.223,42.993 C14.046,43.2 13.961,43.471 13.988,43.742 C13.996,43.828 14,43.914 14,44 C14,45.654 12.654,47 11,47 C9.346,47 8,45.654 8,44 C8,42.271 9.509,40.883 11.225,41.009 C11.498,41.028 11.767,40.938 11.97,40.756 C13.298,39.563 14.259,38.571 14.908,37.722 C15.042,37.548 15.18,37.356 15.323,37.146 C15.546,36.815 15.552,36.384 15.338,36.048 C15.313,36.009 15.295,35.967 15.271,35.927 C14.076,34.01 13.315,31.82 13.082,29.576 C13.035,29.13 12.697,28.769 12.254,28.693 C12.243,28.691 12.144,28.678 12.132,28.676 C11.348,28.571 10.546,28.529 9.738,28.521 C9.894,28.039 10,27.534 10,27 C10,26.454 9.89,25.938 9.728,25.445 C10.663,25.449 11.471,25.412 12.132,25.324 C12.283,25.304 12.441,25.279 12.608,25.251 C13.002,25.184 13.318,24.887 13.411,24.498 C13.907,22.423 14.824,20.512 16.138,18.818 C16.406,18.473 16.418,17.992 16.168,17.634 C16.08,17.507 15.993,17.389 15.909,17.278 C15.446,16.672 14.824,15.995 14.008,15.207 C13.777,14.984 13.454,14.886 13.136,14.942 C12.925,14.98 12.711,15 12.5,15 C10.57,15 9,13.43 9,11.5 C9,9.57 10.57,8 12.5,8 C14.43,8 16,9.57 16,11.5 C16,11.729 15.978,11.957 15.935,12.18 C15.872,12.502 15.971,12.836 16.202,13.071 C16.853,13.735 17.552,14.354 18.278,14.908 C18.458,15.046 18.64,15.181 18.827,15.313 C19.159,15.551 19.603,15.564 19.946,15.343 C21.588,14.296 23.389,13.59 25.298,13.243 C25.699,13.17 26.015,12.861 26.098,12.463 C26.191,12.017 26.266,11.573 26.325,11.132 C26.386,10.67 26.409,10.196 26.437,9.725 C26.932,9.89 27.451,10 28,10 C28.552,10 29.073,9.889 29.569,9.723 C29.588,10.24 29.62,10.719 29.675,11.132 C29.728,11.529 29.812,11.98 29.928,12.485 C30.017,12.875 30.329,13.174 30.722,13.246 C32.819,13.631 34.772,14.442 36.529,15.659 C36.864,15.891 37.307,15.896 37.648,15.672 C38.02,15.428 38.377,15.172 38.722,14.908 C39.418,14.376 40.088,13.787 40.712,13.16 C40.896,12.976 41,12.728 41.003,12.467 C41.019,11.106 42.139,10 43.5,10 C44.878,10 46,11.121 46,12.5 C46,13.847 44.93,14.948 43.595,14.998 L43.483,15 C43.073,15.007 42.725,15.26 42.577,15.616 C41.969,16.225 41.471,16.782 41.092,17.277 C40.854,17.589 40.599,17.958 40.33,18.386 C40.116,18.725 40.125,19.157 40.353,19.487 C41.601,21.295 42.42,23.308 42.787,25.468 C42.843,25.797 43.061,26.065 43.353,26.201 C43.435,26.24 43.52,26.271 43.611,26.287 L43.868,26.324 C44.53,26.412 45.337,26.449 46.272,26.445 C46.11,26.938 46,27.454 46,28 C46,28.534 46.106,29.039 46.262,29.521 M28,54 C26.346,54 25,52.654 25,51 C25,50.976 25.006,50.954 25.007,50.93 C25.019,50.44 25.154,49.985 25.374,49.581 C25.628,49.112 25.997,48.721 26.451,48.443 C26.905,48.168 27.431,48 28,48 C28.582,48 29.122,48.174 29.583,48.462 C30.03,48.742 30.392,49.137 30.64,49.605 C30.852,50.004 30.982,50.451 30.993,50.932 C30.994,50.955 31,50.977 31,51 C31,52.654 29.654,54 28,54 M28,2 C29.654,2 31,3.346 31,5 C31,5.023 30.994,5.045 30.993,5.068 C30.982,5.545 30.854,5.988 30.645,6.386 C30.396,6.857 30.033,7.256 29.583,7.538 C29.122,7.826 28.582,8 28,8 C27.431,8 26.905,7.832 26.451,7.557 C25.997,7.279 25.628,6.888 25.374,6.419 C25.154,6.015 25.019,5.56 25.007,5.07 C25.006,5.046 25,5.024 25,5 C25,3.346 26.346,2 28,2 M7,29.22 C6.719,29.474 6.392,29.673 6.03,29.807 C5.708,29.926 5.363,30 5,30 C3.346,30 2,28.654 2,27 C2,25.346 3.346,24 5,24 C5.363,24 5.707,24.074 6.029,24.193 C6.392,24.326 6.718,24.526 7,24.78 C7.609,25.33 8,26.117 8,27 C8,27.883 7.609,28.67 7,29.22 M51,23 C49.65,23 48.427,23.543 47.527,24.416 C46.367,24.467 45.389,24.46 44.617,24.394 C44.197,22.443 43.444,20.606 42.374,18.917 C42.479,18.764 42.581,18.623 42.68,18.493 C43.02,18.05 43.481,17.537 44.055,16.966 C46.275,16.691 48,14.794 48,12.5 C48,10.019 45.981,8 43.5,8 C41.195,8 39.273,9.763 39.029,12.011 C38.545,12.477 38.034,12.916 37.506,13.32 C37.369,13.426 37.23,13.529 37.088,13.631 C35.44,12.584 33.648,11.841 31.746,11.414 C31.71,11.221 31.681,11.038 31.658,10.868 C31.575,10.25 31.546,9.447 31.558,8.505 C32.448,7.602 33,6.365 33,5 C33,2.243 30.757,0 28,0 C25.243,0 23,2.243 23,5 C23,6.392 23.574,7.649 24.494,8.557 C24.493,9.34 24.443,10.112 24.342,10.868 C24.318,11.049 24.291,11.23 24.261,11.413 C22.571,11.791 20.962,12.423 19.462,13.296 C18.948,12.902 18.45,12.473 17.976,12.015 C17.992,11.844 18,11.672 18,11.5 C18,8.468 15.533,6 12.5,6 C9.467,6 7,8.468 7,11.5 C7,14.685 9.76,17.24 12.96,16.98 C13.413,17.433 13.793,17.845 14.097,18.214 C12.984,19.789 12.16,21.518 11.639,23.369 C10.83,23.457 9.77,23.474 8.475,23.418 C7.574,22.544 6.351,22 5,22 C2.243,22 0,24.243 0,27 C0,29.757 2.243,32 5,32 C6.364,32 7.601,31.448 8.503,30.559 C9.406,30.51 10.304,30.502 11.195,30.584 C11.517,32.674 12.233,34.707 13.296,36.538 C12.777,37.211 11.981,38.038 10.929,39.001 C8.205,39.039 6,41.267 6,44 C6,46.757 8.243,49 11,49 C13.757,49 16,46.757 16,44 L16,43.999 C16.691,43.225 17.435,42.52 18.211,41.9 C20.03,43.181 22.097,44.099 24.261,44.586 C24.291,44.769 24.318,44.951 24.342,45.132 C24.443,45.888 24.493,46.66 24.494,47.443 C23.574,48.351 23,49.608 23,51 C23,53.757 25.243,56 28,56 C30.757,56 33,53.757 33,51 C33,49.636 32.448,48.398 31.559,47.496 C31.546,46.554 31.575,45.75 31.658,45.132 C31.681,44.962 31.71,44.779 31.746,44.586 C33.701,44.146 35.542,43.372 37.239,42.272 C37.857,42.801 38.447,43.381 39,44.002 C39.001,46.758 41.244,49 44,49 C46.757,49 49,46.757 49,44 C49,41.274 46.808,39.052 44.071,39.001 C43.354,38.345 42.754,37.75 42.281,37.225 C43.241,35.74 43.95,34.097 44.408,32.391 C44.478,32.127 44.559,31.867 44.617,31.601 C44.798,31.582 44.981,31.573 45.164,31.56 C45.922,31.505 46.692,31.497 47.472,31.539 C48.377,32.441 49.625,33 51,33 C53.757,33 56,30.757 56,28 C56,25.243 53.757,23 51,23" fill="#866D6D" id="Fill-17"/><path d="M30.6396,49.6055 C30.3916,49.1365 30.0296,48.7425 29.5826,48.4615 C29.1216,48.1735 28.5816,48.0005 27.9996,48.0005 C27.4316,48.0005 26.9046,48.1685 26.4516,48.4435 C25.9966,48.7205 25.6276,49.1125 25.3736,49.5815 C25.1536,49.9855 25.0186,50.4405 25.0066,50.9295 C25.0066,50.9545 24.9996,50.9755 24.9996,51.0005 C24.9996,52.6545 26.3456,54.0005 27.9996,54.0005 C29.6546,54.0005 30.9996,52.6545 30.9996,51.0005 C30.9996,50.9765 30.9936,50.9555 30.9936,50.9315 C30.9816,50.4515 30.8516,50.0035 30.6396,49.6055" fill="#D8CBCB" id="Fill-19"/><path d="M6.0293,24.1934 C5.7063,24.0744 5.3633,24.0004 5.0003,24.0004 C3.3453,24.0004 2.0003,25.3454 2.0003,27.0004 C2.0003,28.6544 3.3453,30.0004 5.0003,30.0004 C5.3633,30.0004 5.7073,29.9254 6.0303,29.8064 C6.3923,29.6724 6.7183,29.4734 7.0003,29.2194 C7.6093,28.6704 8.0003,27.8824 8.0003,27.0004 C8.0003,26.1174 7.6093,25.3304 7.0003,24.7804 C6.7183,24.5264 6.3913,24.3264 6.0293,24.1934" fill="#F8F5EF" id="Fill-21"/></g></g></svg>
